# xmcd
#
# Track frame offsets: 
#        150
#        19009
#        34369
#
# Disc length: 721 seconds
#
# Revision: 0
# Processed by: cddbd v1.5PL3 Copyright (c) Steve Scherf et al.
# Submitted via: ExactAudioCopy v0.95a3
#
DISCID=1d02cf03
DTITLE=Ella Guru - 3 songs from liverpool EP
DYEAR=2003
DGENRE=Country
TTITLE0=On a beach
TTITLE1=On a boat
TTITLE2=Strugglin' horse in hollywood
EXTD=
EXTT0=
EXTT1=
EXTT2=
PLAYORDER=
